<svg width="22" height="21" viewBox="0 0 22 21" fill="none" xmlns="http://www.w3.org/2000/svg">
<path fill-rule="evenodd" clip-rule="evenodd" d="M5.88374 0C6.29795 0 6.63374 0.335786 6.63374 0.75V1.51306C7.31589 1.49999 8.06867 1.49999 8.89812 1.5L8.9535 1.5H13.0465L13.1019 1.5H13.1019C13.9314 1.49999 14.6841 1.49999 15.3663 1.51306V0.75C15.3663 0.335786 15.7021 0 16.1163 0C16.5305 0 16.8663 0.335786 16.8663 0.75V1.57589C17.1371 1.59583 17.3933 1.62103 17.6354 1.65284C18.83 1.8098 19.7953 2.13991 20.558 2.88518C21.323 3.6328 21.664 4.58308 21.8257 5.7587C21.9826 6.89904 21.9826 8.35565 21.9826 10.1924V10.25V12.25V12.3076C21.9826 14.1444 21.9826 15.601 21.8257 16.7413C21.664 17.9169 21.323 18.8672 20.558 19.6148C19.7953 20.3601 18.83 20.6902 17.6354 20.8472C16.472 21 14.9844 21 13.1019 21H13.0465H8.9535H8.89813C7.01562 21 5.52807 21 4.36464 20.8472C3.16998 20.6902 2.20468 20.3601 1.44208 19.6148C0.67707 18.8672 0.33604 17.9169 0.174307 16.7413C0.0174263 15.601 0.0174395 14.1443 0.0174561 12.3076V12.3076V12.25V10.25V10.1924V10.1924C0.0174395 8.35565 0.0174263 6.89904 0.174307 5.7587C0.33604 4.58308 0.67707 3.6328 1.44208 2.88518C2.20468 2.13991 3.16998 1.8098 4.36464 1.65284C4.60676 1.62103 4.86291 1.59583 5.13374 1.57589V0.75C5.13374 0.335786 5.46952 0 5.88374 0ZM4.56005 3.14006C3.52553 3.27598 2.92669 3.53166 2.49048 3.95796C2.05666 4.38192 1.79828 4.96023 1.66031 5.96313C1.63697 6.13281 1.61744 6.31142 1.6011 6.5H20.3989C20.3826 6.31142 20.3631 6.13281 20.3397 5.96313C20.2017 4.96023 19.9434 4.38192 19.5096 3.95796C19.0733 3.53166 18.4745 3.27598 17.44 3.14006C16.3856 3.00152 14.9967 3 13.0465 3H8.9535C7.0033 3 5.6144 3.00152 4.56005 3.14006ZM1.51746 10.25C1.51746 9.39564 1.51779 8.65244 1.53085 8H20.4692C20.4822 8.65244 20.4826 9.39564 20.4826 10.25V12.25C20.4826 14.1573 20.4809 15.5106 20.3397 16.5369C20.2017 17.5398 19.9434 18.1181 19.5096 18.542C19.0733 18.9683 18.4745 19.224 17.44 19.3599C16.3856 19.4985 14.9967 19.5 13.0465 19.5H8.9535C7.0033 19.5 5.6144 19.4985 4.56005 19.3599C3.52553 19.224 2.92669 18.9683 2.49048 18.542C2.05666 18.1181 1.79828 17.5398 1.66031 16.5369C1.51912 15.5106 1.51746 14.1573 1.51746 12.25V10.25ZM16.1163 12.25C16.6814 12.25 17.1395 11.8023 17.1395 11.25C17.1395 10.6977 16.6814 10.25 16.1163 10.25C15.5512 10.25 15.093 10.6977 15.093 11.25C15.093 11.8023 15.5512 12.25 16.1163 12.25ZM16.1163 16.25C16.6814 16.25 17.1395 15.8023 17.1395 15.25C17.1395 14.6977 16.6814 14.25 16.1163 14.25C15.5512 14.25 15.093 14.6977 15.093 15.25C15.093 15.8023 15.5512 16.25 16.1163 16.25ZM12.0233 11.25C12.0233 11.8023 11.5651 12.25 11 12.25C10.4349 12.25 9.97676 11.8023 9.97676 11.25C9.97676 10.6977 10.4349 10.25 11 10.25C11.5651 10.25 12.0233 10.6977 12.0233 11.25ZM12.0233 15.25C12.0233 15.8023 11.5651 16.25 11 16.25C10.4349 16.25 9.97676 15.8023 9.97676 15.25C9.97676 14.6977 10.4349 14.25 11 14.25C11.5651 14.25 12.0233 14.6977 12.0233 15.25ZM5.88374 12.25C6.44886 12.25 6.90699 11.8023 6.90699 11.25C6.90699 10.6977 6.44886 10.25 5.88374 10.25C5.31861 10.25 4.86048 10.6977 4.86048 11.25C4.86048 11.8023 5.31861 12.25 5.88374 12.25ZM5.88374 16.25C6.44886 16.25 6.90699 15.8023 6.90699 15.25C6.90699 14.6977 6.44886 14.25 5.88374 14.25C5.31861 14.25 4.86048 14.6977 4.86048 15.25C4.86048 15.8023 5.31861 16.25 5.88374 16.25Z" fill="#4C73E3"/>
</svg>
