<svg width="20" height="20" viewBox="0 0 20 20" fill="none" xmlns="http://www.w3.org/2000/svg">
<path d="M10.0007 18.3333L9.44862 18.841C9.59064 18.9955 9.79085 19.0833 10.0007 19.0833C10.2105 19.0833 10.4107 18.9955 10.5527 18.841L10.0007 18.3333ZM14.7147 13.2077L14.1627 12.7L14.7147 13.2077ZM5.28661 13.2077L5.83864 12.7L5.28661 13.2077ZM5.2866 2.95644L4.73457 2.44874L4.73457 2.44874L5.2866 2.95644ZM14.7147 2.95644L15.2667 2.44874V2.44874L14.7147 2.95644ZM10.5527 18.841L15.2667 13.7154L14.1627 12.7L9.44862 17.8256L10.5527 18.841ZM4.73458 13.7154L9.44862 18.841L10.5527 17.8256L5.83864 12.7L4.73458 13.7154ZM4.73457 2.44874C1.86712 5.56655 1.86712 10.5976 4.73458 13.7154L5.83864 12.7C3.4991 10.1562 3.4991 6.00795 5.83864 3.46414L4.73457 2.44874ZM15.2667 2.44874C12.3661 -0.705132 7.63519 -0.705132 4.73457 2.44874L5.83864 3.46414C8.14501 0.9564 11.8563 0.9564 14.1627 3.46414L15.2667 2.44874ZM15.2667 13.7154C18.1342 10.5976 18.1342 5.56655 15.2667 2.44874L14.1627 3.46414C16.5022 6.00795 16.5022 10.1562 14.1627 12.7L15.2667 13.7154ZM11.75 7.5C11.75 8.4665 10.9665 9.25 10 9.25V10.75C11.7949 10.75 13.25 9.29493 13.25 7.5H11.75ZM10 5.75C10.9665 5.75 11.75 6.5335 11.75 7.5H13.25C13.25 5.70508 11.7949 4.25 10 4.25V5.75ZM8.25 7.5C8.25 6.5335 9.0335 5.75 10 5.75V4.25C8.20507 4.25 6.75 5.70508 6.75 7.5H8.25ZM10 9.25C9.0335 9.25 8.25 8.4665 8.25 7.5H6.75C6.75 9.29493 8.20507 10.75 10 10.75V9.25Z" fill="#4C73E3"/>
</svg>
